<?xml version="1.0" encoding="utf-8"?>
<!-- Generator: Adobe Illustrator 26.3.1, SVG Export Plug-In . SVG Version: 6.00 Build 0)  -->
<svg version="1.1" id="Layer_1" xmlns="http://www.w3.org/2000/svg" xmlns:xlink="http://www.w3.org/1999/xlink" x="0px" y="0px"
	 viewBox="0 0 1000 1550" style="enable-background:new 0 0 1000 1550;" xml:space="preserve">
<style type="text/css">
	.st0{fill:#F7C4BD;}
	.st1{fill:#F3AEA9;}
	.st2{fill:#E98A88;}
	.st3{fill:#504D5D;}
	.st4{fill:#3C3B4C;}
	.st5{fill:#D9D9E5;}
	.st6{fill:#B8B7D0;}
	.st7{fill:#FFFBE3;}
	.st8{fill:#009AAE;}
	.st9{fill:#007F9C;}
	.st10{fill:#FAB800;}
	.st11{fill:#F29100;}
	.st12{fill:#E95A0C;}
	.st13{fill:#FBDFDE;}
	.st14{fill:#F6A500;}
	.st15{fill:#FFFFFF;}
	.st16{fill:#FFDC00;}
</style>
<g>
	<g>
		<g>
			<path class="st0" d="M424.9,1263.3l21.7,151.9h44.2v-151.9C490.7,1263.3,457.8,1253.1,424.9,1263.3z"/>
			<path class="st1" d="M428.3,1287.9c0,0,44.3,14.3,50.1,51.5c8.3,53.7-0.8,85.1-0.8,85.1l13-5.8v-156.4l-65.8,1.6L428.3,1287.9z"
				/>
			<path class="st2" d="M490.7,1287.4c0,0-37.8,5.5-64.1-12c-1.7-11.8-1.7-11.4-1.7-11.4s33.2-7.2,65.8-1.6
				C490.7,1282.1,490.7,1287.4,490.7,1287.4z"/>
			<path class="st3" d="M490.7,1480.4c0,0,7.2,13.3,6.5,28.2c-0.7,14.9-18.9,20.9-64.7,20.9s-27.3-41.3,20.5-49.9
				C484,1479.5,490.7,1480.4,490.7,1480.4z"/>
			<path class="st4" d="M490.7,1480.4c0,0,7.2,13.3,6.5,28.2c-0.7,14.9-18.9,20.9-64.7,20.9c35.4-7.4,48.3-18.6,41.5-33.5
				c-5.3-11.5-14.2-7.3-21-16.4C484,1479.5,490.7,1480.4,490.7,1480.4z"/>
			<path class="st5" d="M444.2,1415.2c1.5,10.9,8.8,64.3,8.8,64.3s2.9,4.1,18.9,4.1s18.7-3.1,18.7-3.1s2-56.4,2-65.4
				c0-4.8-3.6-0.1-27-0.2C448.2,1415,443.5,1410.1,444.2,1415.2z"/>
			<path class="st6" d="M453.1,1479.5c0,0,2.9,4.1,18.9,4.1s18.7-3.1,18.7-3.1s2-56.4,2-65.4c0-3.6-2-1.9-12.9-0.8
				C471.3,1475.4,453.1,1479.5,453.1,1479.5z"/>
			<path class="st7" d="M443.7,1485.2c-4.8,1.2-4.1,5.8,2.9,9.2c7,3.4,13.4,5.8,17.7,2.1C468.5,1492.7,451,1483.4,443.7,1485.2z"/>
			<path class="st7" d="M429.2,1491.1c-4.9,0.7-4.6,5.4,2,9.4c6.6,4.1,12.8,7,17.4,3.7C453.2,1500.8,436.6,1489.9,429.2,1491.1z"/>
		</g>
		<g>
			<path class="st0" d="M575.5,1263.3l-21.7,151.9h-44.2v-151.9C509.7,1263.3,542.6,1253.1,575.5,1263.3z"/>
			<path class="st1" d="M572,1287.9c0,0-44.3,14.3-50.1,51.5c-8.3,53.7,0.8,85.1,0.8,85.1l-13-5.8v-156.4l65.8,1.6L572,1287.9z"/>
			<path class="st2" d="M509.7,1287.4c0,0,37.8,5.5,64.1-12c1.7-11.8,1.7-11.4,1.7-11.4s-33.2-7.2-65.8-1.6
				C509.7,1282.1,509.7,1287.4,509.7,1287.4z"/>
			<path class="st3" d="M509.7,1480.4c0,0-7.2,13.3-6.5,28.2c0.7,14.9,18.9,20.9,64.7,20.9s27.3-41.3-20.5-49.9
				C516.4,1479.5,509.7,1480.4,509.7,1480.4z"/>
			<path class="st4" d="M509.7,1480.4c0,0-7.2,13.3-6.5,28.2c0.7,14.9,18.9,20.9,64.7,20.9c-35.4-7.4-48.3-18.6-41.5-33.5
				c5.3-11.5,14.2-7.3,21-16.4C516.4,1479.5,509.7,1480.4,509.7,1480.4z"/>
			<path class="st5" d="M556.1,1415.2c-1.5,10.9-8.8,64.3-8.8,64.3s-2.9,4.1-18.9,4.1s-18.7-3.1-18.7-3.1s-2-56.4-2-65.4
				c0-4.8,3.6-0.1,27-0.2C552.2,1415,556.8,1410.1,556.1,1415.2z"/>
			<path class="st6" d="M547.3,1479.5c0,0-2.9,4.1-18.9,4.1s-18.7-3.1-18.7-3.1s-2-56.4-2-65.4c0-3.6,2-1.9,12.9-0.8
				C529.1,1475.4,547.3,1479.5,547.3,1479.5z"/>
			<path class="st7" d="M556.6,1485.2c4.8,1.2,4.1,5.8-2.9,9.2c-7,3.4-13.4,5.8-17.7,2.1S549.4,1483.4,556.6,1485.2z"/>
			<path class="st7" d="M571.2,1491.1c4.9,0.7,4.6,5.4-2,9.4c-6.6,4.1-12.8,7-17.4,3.7C547.2,1500.8,563.8,1489.9,571.2,1491.1z"/>
		</g>
	</g>
	<path class="st8" d="M602.2,915.4L396.6,918c0,0-34.6,113.1-34.6,344.2l39.5-3.8l48.6,16.3l50-9.7l0,0l50,9.7l48.6-16.3l39.5,3.8
		C638.2,1031.1,602.2,915.4,602.2,915.4z"/>
	<path class="st9" d="M390.5,942.7c3.7-16.5,6.2-24.7,6.2-24.7l205.5-2.6c0,0,2.6,8.4,6.5,25.3c0,0-36.7,14.1-109.1,14.1
		C434,954.7,390.5,942.7,390.5,942.7z"/>
	<path class="st10" d="M672.9,676.5c0,0-13.1-7.7-30.4,66.3c-0.3-3.2-9.3-66.3-49-92.9C579.2,639.7,543,619,500.3,619
		c-24.2,0-108.2,11.5-138.2,89.3c-30.1,77.9-44.4,247.2-2.3,283c14.2-2.8,32.5-7.1,32.5-7.1s6.4-2.5,7.4-33.8
		c1.1-31.3,0-39.9,0-39.9l6.7,0.4c15.8,0.9,49.5,2.5,93.5,2.5c61.7,0,103.3-3.1,103.3-3.1s3-25.6,1.7-77.2c0,0,17.2,22.6,41.3,21.7
		c59-2.2,66.8-156,59.4-169.2C688.1,678,672.9,676.5,672.9,676.5z"/>
	<path class="st11" d="M672.9,676.5c0,0,15.1,1.5,32.8,9.1c7.3,13.2-0.5,167-59.4,169.2c-24.1,0.9-41.3-21.7-41.3-21.7l-10.2-127.9
		c0,0,7.1,8.3,15,68.9c7.6,58.3,19.3,62.3,33.9,62.3c14.6,0,41.3-26.7,49.5-87.3C701.3,688.5,672.9,676.5,672.9,676.5z"/>
	<polygon class="st12" points="359.5,991.3 364.5,1014.3 397.6,1007.4 392.3,984.2 	"/>
	<polygon class="st12" points="679.2,654.2 672.9,676.5 705.7,685.6 711.4,662.5 	"/>
	<g>
		<path class="st0" d="M679.2,654.2c0,0-5.4-11.8-7.4-31.5c-2-19.7-3.7-35.8-3.7-35.8s14.2-11.1,19.1,22.4
			c5.2-9.5,11.9-39.8,11.9-39.8s4.7-22.1,11.3-21c4.4,0.7,5.1,1.3,0.7,27.6c-2.9,17.9-5.2,27.3-4,27.9c1.6,0.8,4.3-7.8,15.4-34.7
			c7.3-17.6,9.9-17.4,13.5-16.8c3.7,0.6,4.7,4.3-1.5,20.5c-8.2,21.6-14.6,35.8-13.3,37c1.3,1.2,8.3-12.7,16.7-26.5
			c7-11.5,10.4-12,12.7-11.3c3.9,1.3,4.5,6-3.7,19.5c-13.5,22.5-16.2,25.6-15.5,26.1c1.2,0.8,3.1-1.3,12.2-11.1
			c8.1-8.8,9.5-9.5,12.2-8.2c5.1,2.3-0.9,10-14.9,28.7c-4.7,6.3-9.5,13.6-14,21.3c-5.8,10-15.9,14.5-15.9,14.5L679.2,654.2z"/>
		<path class="st1" d="M714.3,649.2c0,0,6-18.5-11.2-26c10.8-2.3,23.5,4.3,26.6,7.6c3.1,3.3-3.7-16.5-34.9-16.8
			c-4.1-7.3-5.1-10.1-5.1-10.1l-2,4.7l3,12.4C690.7,620.8,713.7,628.5,714.3,649.2z"/>
		<path class="st2" d="M691.6,618.4c-2.5-6.7-3.9-10-3.9-10l-0.4,0.9l2.9,12.9c0,0,19.1,6.2,22.9,20.9c0.9,4.3,2.8-13.5-20.6-22.4
			c0,0,0-0.1,0-0.1c4.3-0.7,20-2.6,31.3,5.5C729,629.5,719.6,614.8,691.6,618.4z"/>
		<path class="st13" d="M710.6,646.2c-1.1-2.4-4.9-12.1-10.7-16.4c-7.5-5.5-11.4-3.3-12.2-7.1c-1.1-4.6-3.1-17.2-4.4-15.1
			c-1.2,1.9,0.4,10,1.9,15.8c2.2,8,10.9,1.8,18.2,14.1C708.7,646.5,711.5,648.1,710.6,646.2z"/>
		<path class="st1" d="M707.2,603.9c0,0-3.9,0.8-2.9-6.2c1.9-12.9,6.7-39.2,7.5-42.6c0.8-3.4,0-6.4,0-6.4s3-0.3,2.3,6.4
			c-0.5,8.7-6.8,43.6-6.8,43.6S706.4,603.6,707.2,603.9z"/>
		<path class="st1" d="M721.5,609.9c0,0-3.8-1.9-0.9-9.9c2.9-7.9,10.6-27,14.8-38.5c2.1-5.6,1.5-9,1.5-9s3.1,0.4,1.8,7.4
			c-1.3,7.1-14.8,40.6-14.8,40.6S720.8,608.2,721.5,609.9L721.5,609.9z"/>
		<path class="st1" d="M731.6,617.6c0,0-2.4-2.5,1.4-8.8c3.8-6.2,15.2-24.9,17.6-29c2.4-4.1,2.3-6.4,2.3-6.4s2.2,2.2-1.3,9.9
			c-3.4,7.7-10.9,18.8-10.9,18.8S732,615.9,731.6,617.6z"/>
		<path class="st1" d="M757.2,599.2c-0.6,3.8-3.6,6.9-10.2,15.6c-6.6,8.7-11.7,16.6-11.7,16.6c-9.7,14.4-14.2,20-14.3,20
			c-2.4,1.8-4.9,3.5-7.3,4.4c-7.8,3-24,1-30.8-7.2c-6.8-8.2-12.9-42.9-12.9-42.9s0.4,3.1,2,18.9c1.6,16.8,7.2,29.6,7.2,29.6
			l32.1,8.8c4.1-1.9,8.2-5.1,11.5-8.6c0.7-0.7,1.4-1.6,2.1-2.6c0,0,0,0,0,0c2.9-3.4,6.8-10.9,9.5-15c2.6-4.1,17.1-23.6,20.6-28.7
			C758.3,603.1,758.5,599.9,757.2,599.2z"/>
	</g>
	<g>
		<path class="st0" d="M397.6,1007.4c0,0,8.4,29.4-1.3,53c-3.3-0.5-11.7-2-9.7-23.1c0,0-2.6,1.6-5.8,13.4
			c-4.9,18.3-4.3,22.8-3.9,36.5c0.2,7.1-7.6,9.7-7.6,9.7s0.6,10.5-8.5,10.5c-9.7-17.3-10.7-66,3.5-93.1
			C379.8,1011.1,379.8,1011.1,397.6,1007.4z"/>
		<path class="st1" d="M362.4,1018.7c0,0,20.4-6.2,28.8-1.7c8.4,4.5,8.7,31,8.7,31s4.1-15.4-2.2-40.6c-18.2,3.8-33.1,6.9-33.1,6.9
			L362.4,1018.7z"/>
		<path class="st1" d="M386.6,1037.3c0,0-4.2-2.7-9.2,6.9c-5,9.6-6.4,24.3-5.6,36.4c0.8,12.2-1,15.7-1,15.7s6.4-2.1,6.2-9.6
			C376.7,1079.1,377.4,1050.1,386.6,1037.3z"/>
		<path class="st1" d="M363.1,1107.2c0,0,2.5-2.1,0-8.5c-2.5-6.4-4.7-16.4-3-33.4c1.4-14.7,2.7-18,6.3-18.1c0,0-3.9,7.5-4.1,26.8
			c-0.2,19.3,2.7,23.1,7,25.5C368.3,1102.8,367.7,1105.7,363.1,1107.2z"/>
		<path class="st2" d="M369.4,1096.9c0,0-7.4,1.6-5.8-22.8c1.3-19.5,2.9-26.9,2.9-26.9s-3-3.7-4.4,21.2c-1.5,27,3.8,31,6.9,32.7
			C369.4,1098.6,369.4,1096.9,369.4,1096.9z"/>
	</g>
	<path class="st11" d="M643.7,738l-1.1,4.8c0,0,2.6,24.2,4.2,38.2c1.6,14.1,8.3-8.7,4.1-33.7C669,746.6,667.2,740.7,643.7,738z"/>
	<path class="st11" d="M405.1,705.3c0,0-16.9,29.8-22.6,111.8c-4.9,70.2,1.8,120.4-0.7,142.6c-2.5,22.2-22.3,31.6-22.3,31.6
		l32.8-7.1c0,0,6.3-3.4,7.1-27c0.8-23.6,1-37.8,1-37.8s-3.7-86.4-3-104.9C398.1,796,401,720.4,405.1,705.3z"/>
	<path class="st11" d="M594.8,705.3c0,0-6.5-13.9-4.7,0c8.2,63.4,8.1,136.2,1.8,179.6c-3.8,26-85.3,25.6-91.6,25.5l0,0h-0.4l0,0
		c-6.3,0.1-87.9,0.4-91.6-25.5c-6.3-43.4-6.4-116.2,1.8-179.6c1.8-13.9-4.7,0-4.7,0c-6.8,42.8-9.4,85.9-10.1,121.4
		c-0.3,14.2,5.4,92,5.4,92s37.9,14.9,99.5,14.9c0,0,0,0,0,0c61.7,0,102.9-16.7,102.9-16.7s1.7-19.1,2.2-39.8
		C606,838.5,605.3,771.5,594.8,705.3z"/>
	<path class="st12" d="M400.4,918.7c0,0-5.4-45.3-5.4-91.4c0-24,7.5-114.8,10.1-122c1.6-3.1,0,10.1-2.3,32.1
		c-2.3,22.1-3.6,54.2-4.2,81.6c-1.1,46.5,4.8,100.7,4.8,100.7L400.4,918.7z"/>
	<path class="st12" d="M602.8,916.9c0,0,1.1-11.3,1.8-27c0.8-17.4,1.3-40.7,0.7-66.1c0-14.9-3-56-6.2-86.4c-2-18.5-4-30.8-5-33.6
		c-1.6-3.1,0.7,11.3,3,33.3c2.3,22.1,3.8,52.5,4.5,79.9c0.5,21.1,0.6,43.7,0.1,62.2c-0.6,22.3-1.8,38.6-1.8,38.6L602.8,916.9z"/>
	<g>
		<path class="st14" d="M500,619c0,0,0.1,0,0.1,0s0.1,0,0.1,0H500z"/>
		<path class="st11" d="M500.2,619c-52.2,0-93.4,30.9-93.4,30.9s19.4,44.4,93.2,44.4h0.4c73.8,0,93.2-44.4,93.2-44.4
			S552.4,619,500.2,619z"/>
	</g>
	<path class="st12" d="M542.2,623.5c0,17.3-18.9,31.3-42.3,31.3c-23.3,0-42.3-14-42.3-31.3c0-17.3,18.9-16.8,42.3-16.8
		C523.3,606.7,542.2,606.2,542.2,623.5z"/>
	<path class="st0" d="M527.9,616.3c-0.8-17.5-0.8-17.5-0.8-17.5s-9.5-4.6-27.2-4.6c-17.6,0-27.2,4.6-27.2,4.6s0,0-0.8,17.5
		c-0.8,17.5,27.9,21.3,27.9,21.3S528.7,633.8,527.9,616.3z"/>
	<path class="st2" d="M472.4,596.9v9.9c0,0,7.7,10.4,27.9,10.4c20.2,0,27.2-10.4,27.2-10.4v-9.9H472.4z"/>
	<g>
		<path class="st15" d="M693.8,661.9c-0.5-0.1-1.1,0.2-1.2,0.7l-3.4,14.1c-0.1,0.5,0.2,1.1,0.7,1.2c0.5,0.1,1.1-0.2,1.2-0.7
			l3.4-14.1C694.6,662.6,694.3,662,693.8,661.9z"/>
		<path class="st15" d="M685.4,660c-0.5-0.1-1.1,0.2-1.2,0.7l-3.4,14.1c-0.1,0.5,0.2,1.1,0.7,1.2c0.5,0.1,1.1-0.2,1.2-0.7l3.4-14.1
			C686.2,660.7,685.9,660.1,685.4,660z"/>
		<path class="st15" d="M702.1,664.2c-0.5-0.1-1.1,0.2-1.2,0.7l-3.4,14.1c-0.1,0.5,0.2,1.1,0.7,1.2c0.5,0.1,1.1-0.2,1.2-0.7
			l3.4-14.1C702.9,664.9,702.6,664.4,702.1,664.2z"/>
	</g>
	<g>
		<path class="st15" d="M376.7,991.3c-0.5,0.1-0.9,0.6-0.8,1.2l3.1,14.2c0.1,0.5,0.6,0.9,1.2,0.8c0.5-0.1,0.9-0.6,0.8-1.2l-3.1-14.2
			C377.8,991.6,377.3,991.2,376.7,991.3z"/>
		<path class="st15" d="M368.3,993.3c-0.5,0.1-0.9,0.6-0.8,1.2l3.1,14.2c0.1,0.5,0.6,0.9,1.2,0.8c0.5-0.1,0.9-0.6,0.8-1.2l-3.1-14.2
			C369.4,993.6,368.9,993.2,368.3,993.3z"/>
		<path class="st15" d="M385.2,989.8c-0.5,0.1-0.9,0.6-0.8,1.2l3.1,14.2c0.1,0.5,0.6,0.9,1.2,0.8c0.5-0.1,0.9-0.6,0.8-1.2l-3.1-14.2
			C386.3,990,385.7,989.7,385.2,989.8z"/>
	</g>
	<path class="st9" d="M450.1,1274.7c0,0,4.4-207.8,6.4-265.3c2.1-57.4-12.7-2.3-16,83.2c-3.2,82.2-8.5,176-8.5,176L450.1,1274.7z"/>
	<path class="st9" d="M401.5,1258.4c0,0,6.1-207.8,6.4-265.3c0.2-40.5-8.3-2.6-14,84c-5.4,82-11,183-11,183L401.5,1258.4z"/>
	<path class="st9" d="M550.1,1274.7c0,0-4.4-207.8-6.4-265.3c-2.1-57.4,12.7-2.3,16,83.2c3.2,82.2,8.5,176,8.5,176L550.1,1274.7z"/>
	<path class="st9" d="M598.8,1258.4c0,0-6.1-207.8-6.4-265.3c-0.2-40.5,8.3-2.6,14,84c5.4,82,11,183,11,183L598.8,1258.4z"/>
	<path class="st9" d="M500.2,989.8c0,0,6.6,0-0.2,0c-7.1,0-12.2,277.6-12.2,277.6l12.3-2.4l12.3,2.4
		C512.4,1267.4,506.2,989.8,500.2,989.8z"/>
	<path class="st16" d="M397.3,657.4c0,0-22.9,28.6-37.8,89.3c-15,60.7-23.9,161.4-4.9,239.2c-21.1-31.2-21.1-68.8-21.1-116.6
		c0-36.2,7.5-117.7,33-171.2C373.6,683.1,385.4,666.3,397.3,657.4z"/>
	<path class="st16" d="M602.2,656.6c0,0,35,55.7,43.9,144.2C650.4,781.5,644.5,694,602.2,656.6z"/>
	<path class="st16" d="M536.8,723.1c-22.1,15.4-36.6,14.3-36.6,14.3h0c0,0-14.5,1.1-36.6-14.3c-13.4-9.3-24-6.2-40.1,5.3v19.8
		c16.1-11.4,26.7-14.6,40.1-5.3c22.1,15.4,36.6,14.3,36.6,14.3h0c0,0,14.5,1.1,36.6-14.3c13.4-9.3,24-6.2,40.1,5.3v-19.8
		C560.8,717,550.2,713.8,536.8,723.1z"/>
	<path class="st16" d="M536.8,762.7c-22.1,15.4-36.6,14.3-36.6,14.3h0c0,0-14.5,1.1-36.6-14.3c-13.4-9.3-24-6.2-40.1,5.3v19.8
		c16.1-11.4,26.7-14.6,40.1-5.3c22.1,15.4,36.6,14.3,36.6,14.3h0c0,0,14.5,1.1,36.6-14.3c13.4-9.3,24-6.2,40.1,5.3v-19.8
		C560.8,756.5,550.2,753.4,536.8,762.7z"/>
</g>
</svg>
