<?xml version="1.0" encoding="utf-8"?>
<!-- Generator: Adobe Illustrator 26.3.1, SVG Export Plug-In . SVG Version: 6.00 Build 0)  -->
<svg version="1.1" id="Layer_1" xmlns="http://www.w3.org/2000/svg" xmlns:xlink="http://www.w3.org/1999/xlink" x="0px" y="0px"
	 viewBox="0 0 1000 1550" style="enable-background:new 0 0 1000 1550;" xml:space="preserve">
<style type="text/css">
	.st0{fill:#F7C4BD;}
	.st1{fill:#F3AEA9;}
	.st2{fill:#E98A88;}
	.st3{fill:#9A549B;}
	.st4{fill:#803484;}
	.st5{fill:#DBDA00;}
	.st6{fill:#B8CD00;}
	.st7{fill:#FFFBE3;}
	.st8{fill:#FBDFDE;}
	.st9{fill:#F6A500;}
	.st10{fill:#00CCFF;}
	.st11{fill:#C28BBD;}
	.st12{fill:#FFFFFF;}
</style>
<g>
	<g>
		<path class="st0" d="M423.6,1264.3l21.7,152.2h44.3v-152.2C489.6,1264.3,456.6,1254.1,423.6,1264.3z"/>
		<path class="st1" d="M427.1,1289c0,0,44.4,14.3,50.2,51.7c8.3,53.9-0.8,85.3-0.8,85.3l13.1-5.8v-156.7l-66,1.6L427.1,1289z"/>
		<path class="st2" d="M489.6,1288.4c0,0-37.9,5.5-64.3-12c-1.7-11.8-1.7-11.4-1.7-11.4s33.3-7.2,66-1.6
			C489.6,1283.2,489.6,1288.4,489.6,1288.4z"/>
		<path class="st3" d="M489.6,1481.9c0,0,7.2,13.3,6.5,28.3s-19,20.9-64.8,20.9c-45.9,0-27.4-41.4,20.6-50
			C482.8,1481,489.6,1481.9,489.6,1481.9z"/>
		<path class="st4" d="M489.6,1481.9c0,0,7.2,13.3,6.5,28.3s-19,20.9-64.8,20.9c35.4-7.4,48.4-18.6,41.6-33.6
			c-5.3-11.5-14.3-7.3-21-16.4C482.8,1481,489.6,1481.9,489.6,1481.9z"/>
		<path class="st5" d="M443,1416.5c1.5,10.9,8.8,64.5,8.8,64.5s2.9,4.1,19,4.1s18.8-3.1,18.8-3.1s2-56.5,2-65.5
			c0-4.8-3.6-0.1-27-0.2C447,1416.3,442.3,1411.4,443,1416.5z"/>
		<path class="st6" d="M451.9,1481c0,0,2.9,4.1,19,4.1s18.8-3.1,18.8-3.1s2-56.5,2-65.5c0-3.6-2-1.9-12.9-0.8
			C470.1,1476.9,451.9,1481,451.9,1481z"/>
		<path class="st7" d="M442.5,1486.7c-4.8,1.2-4.1,5.8,2.9,9.2c7,3.4,13.5,5.8,17.7,2.1C467.4,1494.3,449.8,1484.9,442.5,1486.7z"/>
		<path class="st7" d="M427.9,1492.6c-4.9,0.7-4.6,5.4,2,9.4c6.7,4.1,12.9,7,17.5,3.7C452,1502.4,435.3,1491.5,427.9,1492.6z"/>
	</g>
	<g>
		<path class="st0" d="M574.6,1264.3l-21.7,152.2h-44.3v-152.2C508.6,1264.3,541.6,1254.1,574.6,1264.3z"/>
		<path class="st1" d="M571.1,1289c0,0-44.4,14.3-50.2,51.7c-8.3,53.9,0.8,85.3,0.8,85.3l-13.1-5.8v-156.7l66,1.6L571.1,1289z"/>
		<path class="st2" d="M508.6,1288.4c0,0,37.9,5.5,64.3-12c1.7-11.8,1.7-11.4,1.7-11.4s-33.3-7.2-66-1.6
			C508.6,1283.2,508.6,1288.4,508.6,1288.4z"/>
		<path class="st3" d="M508.6,1481.9c0,0-7.2,13.3-6.5,28.3s19,20.9,64.8,20.9c45.9,0,27.4-41.4-20.6-50
			C515.4,1481,508.6,1481.9,508.6,1481.9z"/>
		<path class="st4" d="M508.6,1481.9c0,0-7.2,13.3-6.5,28.3s19,20.9,64.8,20.9c-35.4-7.4-48.4-18.6-41.6-33.6
			c5.3-11.5,14.3-7.3,21-16.4C515.4,1481,508.6,1481.9,508.6,1481.9z"/>
		<path class="st5" d="M555.2,1416.5c-1.5,10.9-8.8,64.5-8.8,64.5s-2.9,4.1-19,4.1s-18.8-3.1-18.8-3.1s-2-56.5-2-65.5
			c0-4.8,3.6-0.1,27-0.2C551.2,1416.3,555.9,1411.4,555.2,1416.5z"/>
		<path class="st6" d="M546.3,1481c0,0-2.9,4.1-19,4.1s-18.8-3.1-18.8-3.1s-2-56.5-2-65.5c0-3.6,2-1.9,12.9-0.8
			C528.1,1476.9,546.3,1481,546.3,1481z"/>
		<path class="st7" d="M555.7,1486.7c4.8,1.2,4.1,5.8-2.9,9.2c-7,3.4-13.5,5.8-17.7,2.1C530.8,1494.3,548.4,1484.9,555.7,1486.7z"/>
		<path class="st7" d="M570.3,1492.6c4.9,0.7,4.6,5.4-2,9.4s-12.9,7-17.5,3.7C546.2,1502.4,562.9,1491.5,570.3,1492.6z"/>
	</g>
	<path class="st5" d="M640.3,742.6c-2.4-17.3-14.3-70-49.1-93.1c-14.1-10-49-30-90.6-30.9c-0.2,0-0.4,0-0.6,0c-0.4,0-0.8,0-1.2,0
		c-0.4,0-0.8,0-1.2,0c-0.2,0-0.4,0-0.6,0c-41.5,0.9-76.5,21-90.6,30.9c-34.8,23.2-46.7,75.9-49.1,93.1c-4.6,33,39.9,46.4,40,46.4
		l0,0c0,0.2,0,0.3,0,0.5c-0.7,28.6-0.9,64.3-1,90.3c-0.5,26.3-1,38.4-1,38.4c7.6,0.4,55.7-0.2,103.5-0.9
		c47.8,0.7,95.9,1.3,103.5,0.9c0,0-0.5-12.1-1-38.4c-0.1-26.1-0.3-61.7-1-90.3c0-0.2,0-0.3,0-0.5l0,0
		C600.4,789,644.9,775.6,640.3,742.6z"/>
	<g>
		<path class="st0" d="M743.2,1027.1c0,0-18.4-25.1-22.1-35.3c28.4,18.4,29.5,0.4,29.5,0.4s-13.3-9.5-29.4-20.9
			c-16.1-11.5-28.6-15.3-28.6-15.3c-29.1-69.2-27.3-130.5-54.7-204.5c-11.1,11.5-30.5,18.2-37.2,36.7
			c-2.7,83.7,51.3,155.4,64.6,207.6c2.9,8.5,5.2,16.9,6.8,24.7c4.8,23,6.7,32.5,11.8,30.2c2.8-1.2,3.2-2.7,1.9-14.6
			c-1.4-13.3-1.8-16.1-0.3-16.5c0.8-0.2,1.4,3.9,9.4,28.9c4.8,15.1,8.8,17.8,12.3,15.7c2.1-1.3,4-4.1-0.1-17
			c-4.9-15.5-10.7-30-8.9-30.1c1.8-0.2,8.2,14,19.1,34.4c8.2,15.4,11.6,17.1,14.5,14.7c2.9-2.3,4.7-4.2-3.7-21.3
			c-12.9-26.2-17.6-33.8-15.9-34.6c1.3-0.6,6.9,7.4,18.4,21.4c16.9,20.7,17.8,20.6,21.3,17.7
			C756.8,1045.2,743.2,1027.1,743.2,1027.1z"/>
		<path class="st1" d="M683.8,1050.9c-5.1,2.3-7-7.3-11.8-30.2c-1.6-7.7-3.9-16.2-6.8-24.7c-13.3-52.2-67.3-123.9-64.6-207.6
			c6.8-18.5,26.1-25.3,37.2-36.7c2.1,5.7,4,11.3,5.8,16.9c-42.4,43.1-34.5,74.5-3.2,152.7c0,0,24.2,50,30.1,77.1
			C676.5,1025,679.9,1048.3,683.8,1050.9z"/>
		<path class="st1" d="M673.2,985.8c0,0,9.9,16.8,27,8.8c-5.4,9.7-18.8,14.8-23.3,15.1c-4.5,0.2,14.9,8.1,35.7-15.2
			c8.2,1.8,11,2.8,11,2.8l-2.2-4.6l-11.3-6C710.2,986.7,689.2,999,673.2,985.8z"/>
		<path class="st2" d="M711.4,989.1c6.7,2.5,10.1,3.6,10.1,3.6l-0.3-0.9l-11.6-6.3c0,0-17.2,10.3-30.8,3.4c-3.8-2.1,8.3,11,30.4-0.7
			h0.1c-2.3,3.7-11.3,16.8-24.8,20C678.3,1009.9,695.6,1012.5,711.4,989.1z"/>
		<path class="st8" d="M677.9,985c2.6,0.8,12.3,4.3,19.4,2.8c9.2-2,10-6.4,13.4-4.6c4.2,2.2,15,9.1,14.3,6.6
			c-0.6-2.1-7.8-6.4-13.2-9c-7.5-3.7-8.6,7-22.7,4.4C678.9,983.4,675.8,984.4,677.9,985z"/>
		<path class="st1" d="M711.9,1010.4c0,0,1.9-3.5,6.6,1.9c8.5,9.9,25.1,30.9,27.1,33.8s4.8,4.2,4.8,4.2s-1.7,2.5-6.3-2.5
			c-6.2-6.1-28.3-34-28.3-34S712.8,1010,711.9,1010.4z"/>
		<path class="st1" d="M698,1017.1c0,0,3.9-1.5,8,5.9s13.4,25.8,19.2,36.6c2.8,5.2,5.7,7.1,5.7,7.1s-2.3,2.1-6.8-3.5
			c-4.5-5.7-20.8-38-20.8-38S699.8,1017.8,698,1017.1L698,1017.1z"/>
		<path class="st1" d="M685.5,1019.7c0,0,3.5-0.1,5.7,6.8s8.7,27.9,10.2,32.4s3.3,6,3.3,6s-3.1,0.2-6.6-7.5s-7-20.6-7-20.6
			S686.6,1021.1,685.5,1019.7z"/>
	</g>
	<g>
		<path class="st0" d="M255,1027.1c0,0,18.4-25.1,22.1-35.3c-28.4,18.4-29.5,0.4-29.5,0.4s13.3-9.5,29.4-20.9
			c16.1-11.5,28.6-15.3,28.6-15.3c29.1-69.2,27.3-130.5,54.7-204.5c11.1,11.5,30.5,18.2,37.2,36.7c2.7,83.7-51.3,155.4-64.6,207.6
			c-2.9,8.5-5.2,16.9-6.8,24.7c-4.8,23-6.7,32.5-11.8,30.2c-2.8-1.2-3.2-2.7-1.9-14.6c1.4-13.3,1.8-16.1,0.3-16.5
			c-0.8-0.2-1.4,3.9-9.4,28.9c-4.8,15.1-8.8,17.8-12.3,15.7c-2.1-1.3-4-4.1,0.1-17c4.9-15.5,10.7-30,8.9-30.1
			c-1.8-0.2-8.2,14-19.1,34.4c-8.2,15.4-11.6,17.1-14.5,14.7c-2.9-2.3-4.7-4.2,3.7-21.3c12.9-26.2,17.6-33.8,15.9-34.6
			c-1.3-0.6-6.9,7.4-18.4,21.4c-16.9,20.7-17.8,20.6-21.3,17.7C241.4,1045.2,255,1027.1,255,1027.1z"/>
		<path class="st1" d="M314.4,1050.9c5.1,2.3,7-7.3,11.8-30.2c1.6-7.7,3.9-16.2,6.8-24.7c13.3-52.2,67.3-123.9,64.6-207.6
			c-6.8-18.5-26.1-25.3-37.2-36.7c-2.1,5.7-4,11.3-5.8,16.9c42.4,43.1,34.5,74.5,3.2,152.7c0,0-24.2,50-30.1,77.1
			C321.7,1025,318.3,1048.3,314.4,1050.9z"/>
		<path class="st1" d="M325,985.8c0,0-9.9,16.8-27,8.8c5.4,9.7,18.8,14.8,23.3,15.1c4.5,0.2-14.9,8.1-35.7-15.2
			c-8.2,1.8-11,2.8-11,2.8l2.2-4.6l11.3-6C288,986.7,309,999,325,985.8z"/>
		<path class="st2" d="M286.8,989.1c-6.7,2.5-10.1,3.6-10.1,3.6l0.3-0.9l11.6-6.3c0,0,17.2,10.3,30.8,3.4c3.8-2.1-8.3,11-30.4-0.7
			h-0.1c2.3,3.7,11.3,16.8,24.8,20C319.9,1009.9,302.6,1012.5,286.8,989.1z"/>
		<path class="st8" d="M320.3,985c-2.6,0.8-12.3,4.3-19.4,2.8c-9.2-2-10-6.4-13.4-4.6c-4.2,2.2-15,9.1-14.3,6.6
			c0.6-2.1,7.8-6.4,13.2-9c7.5-3.7,8.6,7,22.7,4.4C319.3,983.4,322.4,984.4,320.3,985z"/>
		<path class="st1" d="M286.3,1010.4c0,0-1.9-3.5-6.6,1.9c-8.5,9.9-25.1,30.9-27.1,33.8c-2.1,2.9-4.8,4.2-4.8,4.2s1.7,2.5,6.3-2.5
			c6.2-6.1,28.3-34,28.3-34S285.4,1010,286.3,1010.4z"/>
		<path class="st1" d="M300.2,1017.1c0,0-3.9-1.5-8,5.9s-13.4,25.8-19.2,36.6c-2.8,5.2-5.7,7.1-5.7,7.1s2.3,2.1,6.8-3.5
			c4.5-5.7,20.8-38,20.8-38S298.4,1017.8,300.2,1017.1L300.2,1017.1z"/>
		<path class="st1" d="M312.7,1019.7c0,0-3.5-0.1-5.7,6.8s-8.7,27.9-10.2,32.4s-3.3,6-3.3,6s3.1,0.2,6.6-7.5s7-20.6,7-20.6
			S311.6,1021.1,312.7,1019.7z"/>
	</g>
	<g>
		<path class="st9" d="M497.4,618.5h0.1h0.1H497.4z"/>
		<path class="st6" d="M497.5,618.5c-52.3,0-93,32.3-93,32.3s18.8,43.2,92.7,43.2h0.4c73.9,0,93.4-44.5,93.4-44.5
			S549.9,618.6,497.5,618.5z"/>
	</g>
	<path class="st0" d="M525.3,622c-0.8-17.5-0.8-23.7-0.8-23.7s-9.5-4.6-27.2-4.6s-27.2,4.6-27.2,4.6s0,6.2-0.8,23.7
		s12.4,46.1,28,46.1C512.9,668.2,526.1,639.5,525.3,622z"/>
	<path class="st2" d="M469.7,596.4v9.9c0,0,7.7,10.4,27.9,10.4c20.2,0,27.2-10.4,27.2-10.4v-9.9H469.7z"/>
	<g>
		<path class="st10" d="M623.6,1031.7c-8.6-110.1-20.2-213.6-23.3-242.6c-18.9-24.9-33.4-55.6-33.4-55.6H430.8
			c0,0-14.5,30.6-33.4,55.6c-3,29.1-14.7,133-23.3,243.3c0-0.2,0.1-1.1,0.3-2.5c-7.3,56.2-13.7,133.9-13.7,233.4l39.5-3.8l48.7,16.3
			l50.1-9.7l0,0l50.1,9.7l48.7-16.3l39.5,3.8C637.5,1165.4,631,1088.2,623.6,1031.7z"/>
		<path class="st3" d="M374,1032.3C374,1032.3,374,1032.4,374,1032.3L374,1032.3z"/>
		<path class="st3" d="M623.6,1032.3L623.6,1032.3C623.6,1032.4,623.6,1032.3,623.6,1032.3z"/>
	</g>
	<path class="st11" d="M432.9,756.9c0,0-10.1-108.1-10.9-118.4c-0.8-10.3,18.5-14.9,20.2-9.1c1.7,5.8,13.8,117,14.3,125.3
		C457.3,766,433.9,766.4,432.9,756.9z"/>
	<path class="st11" d="M564.7,756.9c0,0,10.1-108.1,10.9-118.4c0.8-10.3-18.5-14.9-20.2-9.1c-1.7,5.8-13.8,117-14.3,125.3
		C540.3,766,563.8,766.4,564.7,756.9z"/>
	<g>
		<circle class="st12" cx="443.9" cy="747.8" r="5.1"/>
		<circle class="st12" cx="553.2" cy="747.8" r="5.1"/>
	</g>
	<path class="st6" d="M397.4,789c0,0,11-72.7,9-99.6c-1.9-26.9-5,28.2-14.3,51.4c-14.3,35.4-34.7,1.9-34.7,1.9S350.2,775,397.4,789z
		"/>
	<path class="st6" d="M600.2,789c0,0-11-72.7-9-99.6s5,28.2,14.3,51.4c14.3,35.4,34.7,1.9,34.7,1.9S647.4,775,600.2,789z"/>
	<path class="st4" d="M448.9,1275.8c0,0,4.4-189.6,6.5-247.2s-12.8-21-16.1,64.7c-3.2,82.3-8.5,176.4-8.5,176.4L448.9,1275.8z"/>
	<path class="st4" d="M400.2,1259.5c0,0,6.1-180.3,6.5-237.9c0.2-40.6-8.3-30.6-14,56.2c-5.4,82.2-11,183.5-11,183.5L400.2,1259.5z"
		/>
	<path class="st4" d="M549.2,1275.8c0,0-4.4-189.6-6.5-247.2s12.8-21,16.1,64.7c3.2,82.3,8.5,176.4,8.5,176.4L549.2,1275.8z"/>
	<path class="st4" d="M597.9,1259.5c0,0-6.1-180.3-6.5-237.9c-0.2-40.6,8.3-30.6,14,56.2c5.4,82.2,11,183.5,11,183.5L597.9,1259.5z"
		/>
	<path class="st4" d="M499.2,1000.7c0,0,6.6,0-0.2,0c-7.2,0-12.2,267.7-12.2,267.7l12.3-2.4l12.3,2.4
		C511.4,1268.4,505.2,1000.7,499.2,1000.7z"/>
</g>
</svg>
