<?xml version="1.0" encoding="utf-8"?>
<!-- Generator: Adobe Illustrator 26.3.1, SVG Export Plug-In . SVG Version: 6.00 Build 0)  -->
<svg version="1.1" id="Layer_1" xmlns="http://www.w3.org/2000/svg" xmlns:xlink="http://www.w3.org/1999/xlink" x="0px" y="0px"
	 viewBox="0 0 1000 1550" style="enable-background:new 0 0 1000 1550;" xml:space="preserve">
<style type="text/css">
	.st0{fill:#262521;stroke:#262521;stroke-width:3;stroke-linecap:round;stroke-linejoin:round;}
	.st1{fill:none;stroke:#262521;stroke-width:3;stroke-linecap:round;stroke-miterlimit:10;}
	.st2{fill:none;stroke:#000000;stroke-width:10;stroke-miterlimit:10;}
	.st3{fill:#B8B7D0;}
	.st4{fill:#633232;}
	.st5{fill:#F7C4BD;}
	.st6{fill:#E98A88;}
	.st7{fill:#F3AEA9;}
	.st8{fill:#FBDFDE;}
	.st9{fill:#794242;}
	.st10{fill:#AE7979;}
	.st11{fill:#552323;}
	.st12{fill:#511414;}
	.st13{fill:#D45C66;}
	.st14{fill:#FFFFFF;}
</style>
<path class="st0" d="M1881.3,166.1"/>
<path class="st1" d="M2240.3,543.1c0,0-14-19.7-18.7-4s5.4,24.7,8.2,35c2.8,10.4,7.5,35,20.1,20.7 M2411.6,542.1
	c0,0,12.7-20.6,18.4-5.3s-3.7,25-5.7,35.5s-5,35.5-18.6,22"/>
<path class="st1" d="M2225.9,546.3c0,0,6.8-10.4,16.2,11.1 M2411.3,556.5c0,0,7.9-16.8,12.7-15.7 M2264.1,634.3c0,0,6.1,38.2,0,53.7
	c-1.3,3.3-7.8,7.4-17.7,11.9"/>
<path class="st1" d="M1881.3,166.1"/>
<path class="st1" d="M2122.3,1533.5l8.5,15l4,1.6 M2160.8,1562.9c0,0,10.4,9.6-1,10.4 M2127.2,1562.9l13.6,5.2 M2129.3,1569.7
	l15.4,4.7 M2156.1,1578.4c0,0,19.8,4.6,13.5,14.8 M2144.7,1586.3c0,0,44,6.4,21.9,20.8"/>
<g>
	<line class="st2" x1="2122.3" y1="362.1" x2="1621.2" y2="362.1"/>
	<line class="st2" x1="2122.3" y1="716.2" x2="1621.2" y2="716.2"/>
	<line class="st2" x1="2122.3" y1="66.9" x2="2122.3" y2="366"/>
	<line class="st2" x1="2660.1" y1="66.9" x2="2660.1" y2="366"/>
	<line class="st2" x1="2122.3" y1="1767.4" x2="1621.2" y2="1767.4"/>
	<line class="st2" x1="3161.2" y1="362.1" x2="2660.1" y2="362.1"/>
	<line class="st2" x1="3161.2" y1="716.2" x2="2660.1" y2="716.2"/>
	<line class="st2" x1="3161.2" y1="1767.4" x2="2660.1" y2="1767.4"/>
</g>
<ellipse class="st3" cx="500" cy="1522.7" rx="187.2" ry="28.6"/>
<g>
	<path class="st4" d="M699.2,280.5l-198.9-88.7h-3.7l-198.9,88.7c0,0-33.5,47.4-43.8,153c-8.3,85.1-0.7,226.2,44.3,271.3
		c0,0,55.1,74,198.4,74h3.7c143.4,0,198.4-74,198.4-74c40-40.2,48.5-187.5,44.9-263.7C738.9,341.2,699.2,280.5,699.2,280.5z"/>
	<path class="st5" d="M526.2,621.9c-0.8-17.5-0.8-23.7-0.8-23.7s-9.5-4.6-27.2-4.6s-27.2,4.6-27.2,4.6s0,6.2-0.8,23.7
		s12.4,46.1,28,46.1C513.8,668.1,527,639.4,526.2,621.9z"/>
	<path class="st6" d="M470.6,596.3v9.9c0,0,7.7,10.4,27.9,10.4c20.2,0,27.2-10.4,27.2-10.4v-9.9H470.6z"/>
	<path class="st5" d="M498.6,211.3c158.3,0,176.1,163.5,176.1,163.5s9.9,105.4-1.8,139.1c-11,31.5-62.5,85.5-174.3,85.5
		c-111.7,0-163.3-54-174.3-85.5c-11.8-33.7-1.8-139.1-1.8-139.1S340.2,211.3,498.6,211.3z"/>
	<path class="st7" d="M318.6,455.1c0,0,27.5-80.7,35.2-94c12.1-5.4,39.4-12.2,70.4-17.1c6.5-1,13-19.2,19.8-20.1
		c5.2-0.6,10.6,16,15.8,15.6c12.7-1.2,25.3-1.9,37-1.9c14.3,0,27.8,0.6,40.2,1.6c6.8,0.6,11.9-17.4,18.2-16.6
		c4.8,0.6,10.9,19.9,15.4,20.6c37.5,6,62.3,15.7,71.6,22.8c18.5,40.8,28.7,59.4,36.3,73.8c0,0,0.2-64.9-17.9-98.6
		c-15.3-41.7-76.4-113.9-174-113.9c-82.5,0-167.9,101.3-167.9,181.7C318.6,423.5,318.6,443.8,318.6,455.1z"/>
	<path class="st7" d="M352.7,533.3c28,37.5,78.6,66.1,145.9,66.1c-32.7,0-105.7-3.2-154.1-54.4c-15.9-16.9-22.1-31.4-23.7-47.5
		C327.4,498.3,333.3,507.3,352.7,533.3z"/>
	<path class="st7" d="M644.3,533.3c-28,37.5-78.6,66.1-145.9,66.1c32.7,0,105.7-3.2,154.1-54.4c15.9-16.9,22.1-31.4,23.7-47.5
		C669.6,498.3,663.7,507.3,644.3,533.3z"/>
	<path class="st8" d="M377.7,469.7c0,2.6-4.3,4.8-9.6,4.8s-9.6-2.1-9.6-4.8c0-2.6,4.3-4.8,9.6-4.8S377.7,467,377.7,469.7z"/>
	<path class="st9" d="M724.8,337.8c-33.1-107.1-115.3-187.2-226.2-187.2c-63.5,0-169.6,28.5-222.5,176.7
		c-22.1,64.3-25.8,112.4-21.3,149.5c5.4-23.6,14.5-59,29.4-84.8c-31,91.2,1.9,140.9,6.8,147c18.5-79.1,28.3-117.3,28.3-117.3
		c12-45,28.9-80.3,28.9-80.3s24.5-49.7,21.1-41.1c-0.8,2-11.5,40.2-4.1,37.9c11.4-2.3,33.7-7.7,53.5-11.3
		c13.5-2.5,25.8-71.2,25.8-71.2s10.5,65.9,22.2,66.7c23.5-1.2,39.4-0.1,68.1-0.1c9.3,0,13.9-82.5,13.9-82.5s21.6,87.3,26.7,89
		c6.2,2,12.7,3.1,19.1,4.6c1.8,0.4,3.8-52.6,3.8-52.6s13.7,57.1,18.3,58.5c5.9,1.8,16.3,5.3,22.2,7.4c5.4,2-0.8-17.6-1.5-22.3
		c-5.2-16,28,64.4,40.3,97.4c1.1,2.8,13.4,25.6,29.1,120.2c36.9-58.7,10.9-148.5,10.9-148.5s19,33.8,24.8,83.9
		C747.3,430.8,739,378.5,724.8,337.8z"/>
	<path class="st4" d="M637.4,324.2c0.7,4.7,6.9,24.3,1.5,22.3c-5.9-2.2-16.3-5.6-22.2-7.4c-4.5-1.4-18.3-58.5-18.3-58.5
		s-2.1,53-3.8,52.6c-6.5-1.5-13-2.6-19.2-4.6c-5.1-1.7-26.7-89-26.7-89s-4.6,82.5-13.9,82.5c-28.7,0-44.6-1.1-68.1,0.1
		c-11.8-0.7-22.2-66.7-22.2-66.7s-12.3,68.7-25.8,71.2c-19.8,3.6-42.1,9-53.5,11.3c-7.4,2.3,3.3-35.9,4.1-37.9c0,0-4,26.1,21,19.8
		s33.3-16.2,55.6-81.1c0,0,15.5,67.6,55.9,67.6c38.1,0,44.4-86.2,44.4-86.2S574,313,583.9,315s12.6-54.9,12.6-54.9
		s16.6,67.6,31.4,72.4C638.1,335.8,637.4,324.2,637.4,324.2z"/>
	<path class="st10" d="M724.5,337.8c-33.1-107.1-115.3-187.2-226.2-187.2c-63.5,0-169.6,28.5-222.5,176.7
		c0,0,65.1-168.6,224.3-168.6C658.5,158.7,724.5,337.8,724.5,337.8z"/>
	<path class="st8" d="M638.8,469.7c0,2.6-4.3,4.8-9.6,4.8s-9.6-2.1-9.6-4.8c0-2.6,4.3-4.8,9.6-4.8
		C634.5,464.9,638.8,467,638.8,469.7z"/>
	<g>
		<g>
			<path class="st11" d="M415.2,356.5c-16.6-0.2-24.7,9.9-22.5,12.5c2.2,2.5,9-2.5,21.4-1.7c20.1,1.3,23.4,5.6,24.8,1.3
				C440.3,364.3,433.5,356.7,415.2,356.5z"/>
		</g>
		<g>
			<path class="st7" d="M502.8,434.1c-0.1-2.7,10.1,4.1,21,34.7c4,11.2,7.4,27.6-27.1,27.1c12.4-3,19.5-6.5,18.8-17.2
				C514.2,461.4,502.9,436.8,502.8,434.1z"/>
			<g>
				<path class="st8" d="M506,443.8c0,0-0.1,2.3,1.9,20.4c2.4,21.7-5.1,26.7-27.1,26.5c6.1,5.6,33.8,7.9,34.5-5.4
					C516.2,472,506,443.8,506,443.8z"/>
				<path class="st6" d="M482.2,490.9c22.3,3.6,31.5-3.1,31.5-11.4c-0.1-13.9-7.5-35.4-7.5-35.4c-1.5-5.1,12.1,15.1,12.1,36.6
					c0,8.7-5.4,20.8-36.8,12.3C477.8,492.1,478.8,489.8,482.2,490.9z"/>
			</g>
		</g>
	</g>
	<path class="st11" d="M402.7,434.4c0,0,15.7-10.1,29.9,0c6.8,4,8.2-3.3,4.3-6.8c-3.8-3.5-11-6.1-18.6-6.1s-13.9,3.6-17.2,7.5
		C397.9,433,400.8,435.8,402.7,434.4z"/>
	<g>
		<path class="st11" d="M581.8,356.5c16.6-0.2,24.7,9.9,22.5,12.5c-2.2,2.5-9-2.5-21.4-1.7c-20.1,1.3-23.4,5.6-24.8,1.3
			C556.7,364.3,563.5,356.7,581.8,356.5z"/>
	</g>
	<path class="st11" d="M594.3,434.4c0,0-15.7-10.1-29.9,0c-6.8,4-8.2-3.3-4.3-6.8c3.8-3.5,11-6.1,18.6-6.1s13.9,3.6,17.2,7.5
		C599.2,433,596.2,435.8,594.3,434.4z"/>
	<path class="st10" d="M449.5,186.1c0,0-45,95.6-52.8,95.6c-3,0,6.5-55.6,6.5-55.6s-60.2,72.4-69.7,76.4c-4.7,2,11-47.4,26.5-73.3
		c5-8.5-22.6,60.6-20.7,61.1c1.1,0.3,67.5-74.8,70-77.3s-6.9,49.9-6.5,52C403.1,266.5,449.5,186.1,449.5,186.1z"/>
	<path class="st10" d="M627.6,257.7c0.2,16-2.7,39.8-2.7,39.8c-2.7,0-34.5-74.6-34.5-74.6s-3.3,59-6.3,58.8
		c-7.7-0.6-36.5-95.8-36.5-95.8s33.8,84.6,34.2,83.2c0.7-2.1,5.4-61.7,5.4-61.7c2.5,2.5,34,73.2,35.1,72.9c0,0,2.4-36,3.4-33.6
		c0.5,1.1,37.3,53.4,41.3,59.6c2.2,3.4-1-30.9-1-30.9s9.9,41.9,6,43.3C669.4,319.4,627.6,257.7,627.6,257.7z"/>
	<path class="st10" d="M455.6,186.1c0,0,29.2,89.1,42.9,89.1c13.7,0,43.6-89.1,43.6-89.1s-34.9,77.3-43.4,77.3
		S455.6,186.1,455.6,186.1z"/>
	<path class="st6" d="M479.7,560.1c3.9,1.1,12.9,2.4,18.6,2.4c5.8,0,14.7-1.3,18.6-2.4c3.9-1.1-3.1,11.2-18.3,11.2H498
		C482.9,571.3,475.8,558.9,479.7,560.1z"/>
	<g>
		<path class="st12" d="M498.4,514.4h-0.5c-28.5,0-47.9-7.3-47.9-7.3s4.6,42.2,47.8,42.2h0.8c43.2,0,47.8-42.2,47.8-42.2
			S527,514.4,498.4,514.4z"/>
		<path class="st13" d="M466.9,539c7,5.9,16.9,10.3,30.8,10.3h0.8c13.7,0,23.5-4.2,30.5-10C523.1,531.4,474.7,531,466.9,539z"/>
		<path class="st14" d="M498.4,514.4h-0.5c-28.5,0-47.9-7.3-47.9-7.3s0.4,3.5,2,8.6c9.6,3.1,24.2,6.1,45.8,6.1h0.8
			c25,0,39.7-3.2,45.8-6.1c1.6-5,2-8.6,2-8.6S527,514.4,498.4,514.4z"/>
	</g>
</g>
</svg>
